<svg width="50" height="50" viewBox="0 0 50 50" fill="none" xmlns="http://www.w3.org/2000/svg">
<rect x="0.5" y="0.5" width="49" height="49" fill="#CCA6A6" stroke="#2D3739"/>
<path d="M6.49808 17.4265L5.9531 16.9411C5.70605 16.7301 5.56799 16.4629 5.53892 16.1393C5.52439 15.8017 5.62612 15.5133 5.84411 15.2742C7.64616 13.2063 8.82331 10.9275 9.37555 8.43761C9.44821 8.1 9.6226 7.82569 9.89873 7.61469C10.1748 7.38961 10.48 7.28411 10.8143 7.29818L11.6862 7.36148C12.035 7.38961 12.3184 7.52325 12.5364 7.76239C12.7544 8.00153 12.8343 8.27584 12.7762 8.58531C12.7762 8.62751 12.7617 8.69785 12.7326 8.79632C12.7035 8.88072 12.689 8.94402 12.689 8.98622C12.6745 9.02842 12.6817 9.07063 12.7108 9.11283C12.7544 9.15503 12.798 9.17613 12.8416 9.17613H21.2124C21.5467 9.17613 21.8373 9.2957 22.0844 9.53484C22.3314 9.75991 22.455 10.0342 22.455 10.3578C22.4259 15.0984 21.3432 18.6362 19.2069 20.9713C17.0706 23.2924 13.6554 24.7132 8.96137 25.2337C8.61258 25.2759 8.30013 25.1915 8.02401 24.9805C7.74789 24.7694 7.58076 24.5022 7.52263 24.1786L7.39184 23.4823C7.33371 23.1588 7.40637 22.8704 7.60983 22.6172C7.81329 22.3499 8.08214 22.1952 8.41639 22.153C11.8316 21.7028 14.2949 20.8025 15.8063 19.4521C15.8935 19.3677 15.8789 19.2974 15.7627 19.2411C14.6872 18.7066 13.3357 18.0735 11.708 17.342C11.4029 17.2014 11.1994 16.9833 11.0977 16.6879C11.0105 16.3785 11.0468 16.083 11.2067 15.8017L11.6862 14.9366C11.8461 14.6412 12.0859 14.4442 12.4056 14.3458C12.7399 14.2332 13.0669 14.2473 13.3866 14.388C15.1741 15.1898 16.5983 15.8509 17.6592 16.3714C17.7609 16.4136 17.8336 16.3925 17.8772 16.3081C18.2986 15.2109 18.5602 13.9097 18.6619 12.4045C18.6619 12.292 18.6038 12.2357 18.4875 12.2357H11.9042C11.7734 12.2357 11.6862 12.292 11.6426 12.4045C10.8579 14.2051 9.73887 15.858 8.2856 17.3631C8.05307 17.6023 7.76242 17.7289 7.41364 17.743C7.06485 17.757 6.75967 17.6515 6.49808 17.4265Z" fill="#2D3739"/>
<path d="M27.4251 16.1815L27.2725 15.3797C27.2144 15.0561 27.2871 14.7678 27.4905 14.5146C27.694 14.2473 27.9629 14.0785 28.2971 14.0082C30.9275 13.5439 33.4707 12.7632 35.9268 11.666C38.3973 10.5547 40.5627 9.22536 42.4229 7.67798C42.6845 7.46697 42.9824 7.36851 43.3166 7.38257C43.6509 7.39664 43.927 7.53028 44.145 7.78348L44.69 8.3743C44.9225 8.62751 45.0242 8.92291 44.9952 9.26052C44.9661 9.58407 44.8208 9.85837 44.5592 10.0834C43.0623 11.3354 41.362 12.4678 39.4582 13.4806C39.3419 13.551 39.2838 13.6424 39.2838 13.7549V22.8282C39.2838 23.1517 39.1603 23.426 38.9132 23.6511C38.6662 23.8903 38.3755 24.0098 38.0413 24.0098H36.7115C36.3773 24.0098 36.0866 23.8903 35.8396 23.6511C35.607 23.426 35.4908 23.1517 35.4908 22.8282V15.4852C35.4908 15.443 35.469 15.4078 35.4254 15.3797C35.3963 15.3516 35.36 15.3445 35.3164 15.3586C33.1801 16.1745 31.0292 16.7723 28.8639 17.1521C28.5296 17.2084 28.2172 17.1451 27.9265 16.9622C27.6504 16.7653 27.4833 16.5051 27.4251 16.1815Z" fill="#2D3739"/>
<path d="M5.53892 42.8816L5.14654 42.1853C4.98668 41.904 4.95761 41.6086 5.05934 41.2991C5.1756 40.9756 5.37906 40.7364 5.66971 40.5817C10.5818 38.0777 14.2295 34.7861 16.6128 30.7066C16.6274 30.6785 16.6201 30.6503 16.591 30.6222C16.5765 30.58 16.5474 30.5589 16.5038 30.5589H7.74062C7.40637 30.5589 7.11572 30.4393 6.86866 30.2002C6.62161 29.9611 6.49808 29.6797 6.49808 29.3562V28.5966C6.49808 28.273 6.62161 27.9917 6.86866 27.7525C7.11572 27.5134 7.40637 27.3938 7.74062 27.3938H19.4249C19.7592 27.3938 20.0498 27.5134 20.2969 27.7525C20.5439 27.9917 20.6674 28.273 20.6674 28.5966V29.3562C20.6674 30.1721 20.4858 30.9247 20.1225 31.6139C19.2069 33.2457 18.1024 34.7861 16.809 36.235C16.7218 36.3194 16.7218 36.4038 16.809 36.4882C18.4076 37.8527 20.0425 39.3016 21.7138 40.8349C21.9609 41.06 22.0844 41.3413 22.0844 41.6789C22.0844 42.0024 21.9609 42.2768 21.7138 42.5018L21.038 43.1348C20.791 43.374 20.4931 43.4936 20.1443 43.4936C19.81 43.4936 19.5194 43.381 19.2723 43.156C17.7318 41.707 16.1332 40.2652 14.4765 38.8303C14.3748 38.76 14.2803 38.76 14.1931 38.8303C12.115 40.659 9.80426 42.1853 7.26104 43.4092C6.94132 43.5639 6.61434 43.585 6.28009 43.4725C5.94584 43.374 5.69878 43.1771 5.53892 42.8816Z" fill="#2D3739"/>
<path d="M43.3166 29.2929C43.6509 29.2929 43.9415 29.4124 44.1886 29.6516C44.4356 29.8907 44.5592 30.1721 44.5592 30.4956V31.1708C44.5592 31.4944 44.4356 31.7757 44.1886 32.0148C43.9415 32.2399 43.6509 32.3525 43.3166 32.3525H40.0904C39.9596 32.3525 39.8942 32.4087 39.8942 32.5213C39.8797 35.8411 39.2257 38.4154 37.9323 40.2441C36.6534 42.0587 34.6406 43.2966 31.8939 43.9578C31.5452 44.0422 31.2182 44 30.913 43.8312C30.6223 43.6624 30.4189 43.4092 30.3026 43.0715L30.0628 42.3752C29.9611 42.0658 29.9902 41.7774 30.15 41.5101C30.3099 41.2428 30.5497 41.067 30.8694 40.9826C32.8022 40.4902 34.1828 39.604 35.0112 38.3239C35.8396 37.0438 36.261 35.1096 36.2755 32.5213C36.2755 32.4087 36.2174 32.3525 36.1012 32.3525H31.4362C31.3054 32.3525 31.2182 32.4087 31.1746 32.5213C30.6078 33.8295 29.8884 35.0393 29.0165 36.1506C28.7985 36.4178 28.5078 36.5796 28.1445 36.6359C27.7957 36.6781 27.476 36.6077 27.1853 36.4249L26.4878 36.0029C26.2117 35.834 26.0445 35.5949 25.9864 35.2854C25.9283 34.9619 25.9937 34.6665 26.1826 34.3992C27.6213 32.4158 28.5732 30.158 29.0383 27.6259C29.1109 27.2883 29.2781 27.014 29.5396 26.803C29.8012 26.592 30.1064 26.4935 30.4552 26.5076L31.4144 26.5709C31.7486 26.599 32.0247 26.7397 32.2427 26.9929C32.4752 27.2321 32.5624 27.5064 32.5043 27.8158C32.4607 28.1534 32.3808 28.5895 32.2645 29.1241C32.2355 29.2366 32.2791 29.2929 32.3953 29.2929H43.3166Z" fill="#2D3739"/>
<rect width="5.01255" height="2.01733" rx="1.00867" transform="matrix(0.649451 0.760403 -0.78078 0.624806 21.3729 4.25061)" fill="#2D3739"/>
<rect width="5.01255" height="2.01733" rx="1.00867" transform="matrix(0.649451 0.760403 -0.78078 0.624806 24.968 4)" fill="#2D3739"/>
</svg>
